<svg width="15" height="15" viewBox="0 0 15 15" fill="none" xmlns="http://www.w3.org/2000/svg">
<g id="icon / bed">
<g id="icon">
<path d="M2.25911 3.35156H5.17578C5.49795 3.35156 5.75911 3.61273 5.75911 3.9349V4.51823C5.75911 4.8404 5.49795 5.10156 5.17578 5.10156H2.25911C1.93695 5.10156 1.67578 4.8404 1.67578 4.51823V3.9349C1.67578 3.61273 1.93695 3.35156 2.25911 3.35156Z" fill="#002B5B"/>
<path d="M2.25911 6.26823H12.7591C13.0813 6.26823 13.3424 6.5294 13.3424 6.85156V10.9349C13.3424 11.2571 13.0813 11.5182 12.7591 11.5182C12.7591 11.8404 12.4979 12.1016 12.1758 12.1016C11.8536 12.1016 11.5924 11.8404 11.5924 11.5182H3.42578C3.42578 11.8404 3.16461 12.1016 2.84245 12.1016C2.52028 12.1016 2.25911 11.8404 2.25911 11.5182C1.93695 11.5182 1.67578 11.2571 1.67578 10.9349V6.85156C1.67578 6.5294 1.93695 6.26823 2.25911 6.26823Z" fill="#002B5B"/>
</g>
</g>
</svg>
