<svg width="16" height="16" viewBox="0 0 16 16" fill="none" xmlns="http://www.w3.org/2000/svg">
<g id="icon / settings">
<g id="icon">
<path fill-rule="evenodd" clip-rule="evenodd" d="M10.0007 2C11.2432 2 12.2873 2.84985 12.5833 4H14.0007C14.3688 4 14.6673 4.29848 14.6673 4.66667C14.6673 5.03486 14.3688 5.33333 14.0007 5.33333H12.5833C12.2873 6.48349 11.2432 7.33333 10.0007 7.33333C8.75809 7.33333 7.71403 6.48349 7.418 5.33333L2.00065 5.33333C1.63246 5.33333 1.33398 5.03486 1.33398 4.66667C1.33398 4.29848 1.63246 4 2.00065 4L7.418 4C7.71403 2.84985 8.75809 2 10.0007 2ZM10.0007 3.33333C10.737 3.33333 11.334 3.93029 11.334 4.66667C11.334 5.40305 10.737 6 10.0007 6C9.26427 6 8.66732 5.40305 8.66732 4.66667C8.66732 3.93029 9.26427 3.33333 10.0007 3.33333Z" fill="#48505E"/>
<path fill-rule="evenodd" clip-rule="evenodd" d="M3.418 10.6667H2.00065C1.63246 10.6667 1.33398 10.9651 1.33398 11.3333C1.33398 11.7015 1.63246 12 2.00065 12H3.418C3.71402 13.1502 4.75809 14 6.00065 14C7.24321 14 8.28728 13.1502 8.58331 12H14.0007C14.3688 12 14.6673 11.7015 14.6673 11.3333C14.6673 10.9651 14.3688 10.6667 14.0007 10.6667L8.58331 10.6667C8.28728 9.51652 7.24321 8.66667 6.00065 8.66667C4.75809 8.66667 3.71402 9.51652 3.418 10.6667ZM6.00065 12.6667C6.73703 12.6667 7.33398 12.0697 7.33398 11.3333C7.33398 10.597 6.73703 10 6.00065 10C5.26427 10 4.66732 10.597 4.66732 11.3333C4.66732 12.0697 5.26427 12.6667 6.00065 12.6667Z" fill="#48505E"/>
</g>
</g>
</svg>
