<svg width="12" height="12" viewBox="0 0 12 12" fill="none" xmlns="http://www.w3.org/2000/svg">
<path fill-rule="evenodd" clip-rule="evenodd" d="M5 3.5C5 2.94772 5.44772 2.5 6 2.5C6.42881 2.5 6.79458 2.7699 6.9367 3.14909L6.29289 3.79289C5.90237 4.18342 5.90237 4.81658 6.29289 5.20711C6.68342 5.59763 7.31658 5.59763 7.70711 5.20711L8.70711 4.20711L9.70711 3.20711C10.0976 2.81658 10.0976 2.18342 9.70711 1.79289C9.35057 1.43636 8.7918 1.40533 8.40006 1.69979C7.85273 0.971243 6.9814 0.5 6 0.5C4.34315 0.5 3 1.84315 3 3.5V10C3 10.5523 3.44772 11 4 11C4.55228 11 5 10.5523 5 10V3.5Z" fill="#48505E"/>
</svg>
